<svg width="60" height="60" viewBox="0 0 60 60" fill="none" xmlns="http://www.w3.org/2000/svg">
<path d="M12.325 12.325L22.925 22.925M37.075 22.925L47.675 12.325M37.075 37.075L47.675 47.675M22.925 37.075L12.325 47.675M55 30C55 43.8071 43.8071 55 30 55C16.1929 55 5 43.8071 5 30C5 16.1929 16.1929 5 30 5C43.8071 5 55 16.1929 55 30ZM40 30C40 35.5228 35.5228 40 30 40C24.4772 40 20 35.5228 20 30C20 24.4772 24.4772 20 30 20C35.5228 20 40 24.4772 40 30Z" stroke="#423F3F" stroke-width="2" stroke-linecap="round" stroke-linejoin="round"/>
</svg>
