<svg width="60" height="60" viewBox="0 0 60 60" fill="none" xmlns="http://www.w3.org/2000/svg">
<path d="M5 52.5C5 45 9.625 39.1 17.7 37.5C23.75 36.3 30 32.5 32.5 30M27.5 50C23.1101 50.0133 18.8756 48.3763 15.6363 45.4135C12.397 42.4508 10.3894 38.3789 10.0118 34.0053C9.63426 29.6317 10.9142 25.2759 13.5979 21.8019C16.2815 18.3278 20.1728 15.9893 24.5 15.25C38.75 12.5 42.5 11.2 47.5 5C50 10 52.5 15.45 52.5 25C52.5 38.75 40.55 50 27.5 50Z" stroke="#008000" stroke-width="2" stroke-linecap="round" stroke-linejoin="round"/>
</svg>
