<svg width="41" height="40" viewBox="0 0 41 40" fill="none" xmlns="http://www.w3.org/2000/svg">
<path d="M10.4997 36.6666V6.66659C10.4997 5.78253 10.8509 4.93468 11.476 4.30956C12.1011 3.68444 12.949 3.33325 13.833 3.33325H27.1663C28.0504 3.33325 28.8982 3.68444 29.5234 4.30956C30.1485 4.93468 30.4997 5.78253 30.4997 6.66659V36.6666M10.4997 36.6666H30.4997M10.4997 36.6666H7.16634C6.28229 36.6666 5.43444 36.3154 4.80932 35.6903C4.1842 35.0652 3.83301 34.2173 3.83301 33.3333V23.3333C3.83301 22.4492 4.1842 21.6014 4.80932 20.9762C5.43444 20.3511 6.28229 19.9999 7.16634 19.9999H10.4997M30.4997 36.6666H33.833C34.7171 36.6666 35.5649 36.3154 36.19 35.6903C36.8152 35.0652 37.1663 34.2173 37.1663 33.3333V18.3333C37.1663 17.4492 36.8152 16.6014 36.19 15.9762C35.5649 15.3511 34.7171 14.9999 33.833 14.9999H30.4997M17.1663 9.99992H23.833M17.1663 16.6666H23.833M17.1663 23.3333H23.833M17.1663 29.9999H23.833" stroke="#1A237E" stroke-width="2" stroke-linecap="round" stroke-linejoin="round"/>
</svg>
