<svg width="60" height="60" viewBox="0 0 60 60" fill="none" xmlns="http://www.w3.org/2000/svg">
<path d="M22.5 30H37.5M30 22.5V37.5M50 32.5C50 45 41.25 51.25 30.85 54.875C30.3054 55.0596 29.7138 55.0507 29.175 54.85C18.75 51.25 10 45 10 32.5V15C10 14.337 10.2634 13.7011 10.7322 13.2323C11.2011 12.7634 11.837 12.5 12.5 12.5C17.5 12.5 23.75 9.50003 28.1 5.70003C28.6296 5.24752 29.3034 4.9989 30 4.9989C30.6966 4.9989 31.3704 5.24752 31.9 5.70003C36.275 9.52503 42.5 12.5 47.5 12.5C48.163 12.5 48.7989 12.7634 49.2678 13.2323C49.7366 13.7011 50 14.337 50 15V32.5Z" stroke="#391448" stroke-width="2" stroke-linecap="round" stroke-linejoin="round"/>
</svg>
