<svg width="41" height="40" viewBox="0 0 41 40" fill="none" xmlns="http://www.w3.org/2000/svg">
<path d="M18.833 24.9999H22.1663C23.0504 24.9999 23.8982 24.6487 24.5234 24.0236C25.1485 23.3985 25.4997 22.5506 25.4997 21.6666C25.4997 20.7825 25.1485 19.9347 24.5234 19.3096C23.8982 18.6844 23.0504 18.3333 22.1663 18.3333H17.1663C16.1663 18.3333 15.333 18.6666 14.833 19.3333L5.49967 28.3333M12.1663 34.9999L14.833 32.6666C15.333 31.9999 16.1663 31.6666 17.1663 31.6666H23.833C25.6663 31.6666 27.333 30.9999 28.4997 29.6666L36.1663 22.3333C36.8095 21.7255 37.1849 20.8871 37.2099 20.0025C37.2349 19.118 36.9075 18.2597 36.2997 17.6166C35.6919 16.9734 34.8535 16.5981 33.969 16.5731C33.0844 16.5481 32.2262 16.8755 31.583 17.4833L24.583 23.9833M3.83301 26.6666L13.833 36.6666M31.9997 14.9999C31.9997 17.6693 29.8357 19.8333 27.1663 19.8333C24.497 19.8333 22.333 17.6693 22.333 14.9999C22.333 12.3305 24.497 10.1666 27.1663 10.1666C29.8357 10.1666 31.9997 12.3305 31.9997 14.9999ZM15.4997 8.33325C15.4997 11.0947 13.2611 13.3333 10.4997 13.3333C7.73825 13.3333 5.49967 11.0947 5.49967 8.33325C5.49967 5.57183 7.73825 3.33325 10.4997 3.33325C13.2611 3.33325 15.4997 5.57183 15.4997 8.33325Z" stroke="#008000" stroke-width="2" stroke-linecap="round" stroke-linejoin="round"/>
</svg>
